# xmcd
#
# Track frame offsets: 
#        150
#        18530
#        36825
#        59022
#        78975
#        98152
#        119785
#        139280
#        158930
#        175877
#
# Disc length: 2631 seconds
#
# Revision: 1
# Processed by: cddbd v1.5.1PL0 Copyright (c) Steve Scherf et al.
# Submitted via: ExactAudioCopy v0.90b4
#
DISCID=8d0a450a
DTITLE=蘇永康 - 愛一個人好難
DYEAR=1999
DGENRE=Pop
TTITLE0=我為你傷心
TTITLE1=我不是愛過就算的人
TTITLE2=愛一個人好難
TTITLE3=忘了怎麼說我愛你
TTITLE4=戰爭
TTITLE5=你變了
TTITLE6=愛到忘我是幸福
TTITLE7=從哪一天算起
TTITLE8=真話傷人很痛
TTITLE9=十分鐘後離開你
EXTD=
EXTT0=
EXTT1=
EXTT2=
EXTT3=
EXTT4=
EXTT5=
EXTT6=
EXTT7=
EXTT8=
EXTT9=
PLAYORDER=
